<svg xmlns="http://www.w3.org/2000/svg" width="20" height="21" viewBox="0 0 20 21"><g><g><path fill="#fff" d="M13.336 18.754a8.268 8.268 0 0 1-3.334.71c-2.07 0-3.96-.778-5.444-2.049 0 0 .117.082.196.15 1.64-3.744 6.707-5.602 6.707-5.602.013 0 .039-.014.052-.014 1.198 3.28 1.693 6.013 1.823 6.805zm-2.41-8.294c-.104.041-.22.068-.338.11 0 0-4.61 1.557-6.941 5.916A9.207 9.207 0 0 1 1.459 10.5c0-.096 0-.191.013-.287.143 0 4.362.11 8.764-1.27.248.505.482 1.01.69 1.516zM9.534 7.563c-4.102 1.134-7.67 1.093-7.892 1.093.56-2.773 2.331-5.083 4.714-6.258a54.465 54.465 0 0 1 3.178 5.165zm8.908 4.36c-.39 2.5-1.745 4.659-3.66 6.011a41.594 41.594 0 0 0-1.667-6.408c2.761-.451 5.145.341 5.327.396zM7.957 1.796c-.013 0-.026.014-.026.014.013-.014.013-.014.026-.014zm7.684 1.981c-.026.041-1.237 1.982-4.454 3.239a44.034 44.034 0 0 0-3.204-5.22 8.272 8.272 0 0 1 2.019-.26c2.162 0 4.141.848 5.639 2.241zm2.904 6.627c-.104-.013-3.008-.683-5.951-.287-.066-.15-.118-.314-.183-.464a38.417 38.417 0 0 0-.573-1.298c3.373-1.449 4.74-3.526 4.767-3.553 1.198 1.53 1.914 3.484 1.94 5.602zm1.459.096c0-5.793-4.48-10.494-10.002-10.494S0 4.707 0 10.5s4.48 10.494 10.002 10.494 10.002-4.7 10.002-10.494z"/></g></g></svg>