<svg xmlns="http://www.w3.org/2000/svg" width="23" height="20" viewBox="0 0 23 20"><g><g><path fill="#fff" d="M23.004 3.754v12.493c0 2.07-1.932 3.748-4.313 3.748H4.313C1.932 19.995 0 18.317 0 16.247V3.754C0 1.685 1.932.007 4.313.007h14.378c2.381 0 4.313 1.678 4.313 3.747zM7.28 7.242c-1.753 0-3.175 1.236-3.175 2.759s1.422 2.759 3.175 2.759c1.752 0 3.175-1.236 3.175-2.76 0-1.522-1.423-2.758-3.175-2.758zm8.447 0c-1.753 0-3.175 1.236-3.175 2.759s1.422 2.759 3.175 2.759c1.752 0 3.175-1.236 3.175-2.76 0-1.522-1.423-2.758-3.175-2.758z"/></g></g></svg>