<svg xmlns="http://www.w3.org/2000/svg" width="23" height="20" viewBox="0 0 23 20"><g><g><path fill="#fff" d="M23.004 2.377a8.968 8.968 0 0 1-2.716.781 4.985 4.985 0 0 0 2.074-2.78c-.906.577-1.928 1-2.993 1.218C18.507.612 17.28.002 15.923.002c-2.613 0-4.716 2.266-4.716 5.047 0 .39.044.78.117 1.156-3.912-.22-7.402-2.219-9.723-5.281a5.28 5.28 0 0 0-.642 2.547c0 1.75.832 3.296 2.102 4.202a4.518 4.518 0 0 1-2.132-.64v.062c0 2.453 1.62 4.484 3.782 4.953-.395.11-.818.172-1.241.172-.307 0-.599-.032-.89-.079.598 2 2.335 3.453 4.408 3.5-1.62 1.36-3.65 2.156-5.854 2.156-.394 0-.76-.015-1.14-.062A12.7 12.7 0 0 0 7.237 20c8.673 0 13.417-7.687 13.417-14.358 0-.219 0-.437-.014-.656.92-.719 1.723-1.61 2.365-2.609z"/></g></g></svg>